<svg width="18" height="24" viewBox="0 0 18 24" fill="none" xmlns="http://www.w3.org/2000/svg">
<path d="M9 0C4.43147 0 0.621094 3.68012 0.621094 8.37891C0.621094 10.1665 1.15826 11.7605 2.18917 13.2542L8.35879 22.8813C8.65809 23.3493 9.34252 23.3484 9.64122 22.8813L15.8376 13.2215C16.8463 11.7955 17.3789 10.1211 17.3789 8.37891C17.3789 3.75878 13.6201 0 9 0ZM9 12.1875C6.90004 12.1875 5.19141 10.4789 5.19141 8.37891C5.19141 6.27895 6.90004 4.57031 9 4.57031C11.1 4.57031 12.8086 6.27895 12.8086 8.37891C12.8086 10.4789 11.1 12.1875 9 12.1875Z" fill="#CD06FF"/>
</svg>
