<svg width="21" height="19" viewBox="0 0 21 19" fill="none" xmlns="http://www.w3.org/2000/svg">
<path d="M9.52734 18.498H0.181641V11.3008C0.181641 8.65104 0.733073 6.5599 1.83594 5.02734C2.9388 3.49479 4.82943 2.14128 7.50781 0.966797L9.52734 4.79102C7.88021 5.56445 6.74154 6.33789 6.11133 7.11133C5.48112 7.87044 5.13021 8.77279 5.05859 9.81836H9.52734V18.498ZM20.4199 18.498H11.0742V11.3008C11.0742 8.65104 11.6257 6.5599 12.7285 5.02734C13.8314 3.49479 15.722 2.14128 18.4004 0.966797L20.4199 4.79102C18.7728 5.56445 17.6341 6.33789 17.0039 7.11133C16.3737 7.87044 16.0228 8.77279 15.9512 9.81836H20.4199V18.498Z" fill="#6C0287"/>
</svg>
