<svg width="26" height="26" viewBox="0 0 26 26" fill="none" xmlns="http://www.w3.org/2000/svg">
<path d="M13 0C8.43147 0 4.62109 3.68012 4.62109 8.37891C4.62109 10.1665 5.15826 11.7605 6.18917 13.2542L12.3588 22.8813C12.6581 23.3493 13.3425 23.3484 13.6412 22.8813L19.8376 13.2215C20.8463 11.7955 21.3789 10.1211 21.3789 8.37891C21.3789 3.75878 17.6201 0 13 0ZM13 12.1875C10.9 12.1875 9.19141 10.4789 9.19141 8.37891C9.19141 6.27895 10.9 4.57031 13 4.57031C15.1 4.57031 16.8086 6.27895 16.8086 8.37891C16.8086 10.4789 15.1 12.1875 13 12.1875Z" fill="#CD06FF"/>
<path d="M18.9548 17.504L15.1193 23.5006C14.1264 25.0485 11.868 25.0435 10.88 23.5021L7.03818 17.5056C3.65798 18.2871 1.57422 19.7188 1.57422 21.4297C1.57422 24.3984 7.46119 26 13 26C18.5388 26 24.4258 24.3984 24.4258 21.4297C24.4258 19.7176 22.3391 18.2851 18.9548 17.504Z" fill="#CD06FF"/>
</svg>
