<svg width="27" height="24" viewBox="0 0 27 24" fill="none" xmlns="http://www.w3.org/2000/svg">
<path d="M14.9382 6.66666C18.0019 6.66666 19.3086 7.86266 19.3086 10.6667H22.2222C22.2222 6.36666 19.6364 3.99999 14.9382 3.99999V6.66666ZM19.9234 13.924C19.6435 13.6911 19.2756 13.5669 18.8975 13.5776C18.5194 13.5883 18.1607 13.7331 17.897 13.9813L14.4109 17.2627C13.5718 17.116 11.8848 16.6347 10.1483 15.0493C8.41183 13.4587 7.88593 11.9107 7.73005 11.148L11.3123 7.95599C11.5839 7.71483 11.7422 7.38642 11.7539 7.04027C11.7656 6.69412 11.6297 6.35738 11.3749 6.10133L5.9921 0.683993C5.73722 0.427135 5.38298 0.271332 5.00462 0.249673C4.62625 0.228013 4.25356 0.342204 3.9657 0.567993L0.804469 3.04933C0.552606 3.28068 0.402277 3.58859 0.381999 3.91466C0.360147 4.24799 -0.0564945 12.144 6.63309 18.2693C12.469 23.6093 19.7792 24 21.7924 24C22.0867 24 22.2674 23.992 22.3154 23.9893C22.6716 23.9711 23.0079 23.8329 23.2594 23.6013L25.9691 20.7067C26.2159 20.4434 26.341 20.1024 26.3176 19.7561C26.2942 19.4098 26.1242 19.0855 25.8438 18.852L19.9234 13.924Z" fill="#CD06FF"/>
</svg>
