<svg width="50" height="50" viewBox="0 0 50 50" fill="none" xmlns="http://www.w3.org/2000/svg">
<path d="M24.9999 1C11.7449 1 0.999878 11.745 0.999878 25C0.999878 38.255 11.7449 49 24.9999 49C38.2549 49 48.9999 38.255 48.9999 25C48.9999 11.745 38.2549 1 24.9999 1ZM34.2299 28.0775C34.2299 28.0775 36.3524 30.1725 36.8749 31.145C36.8899 31.165 36.8974 31.185 36.9024 31.195C37.1149 31.5525 37.1649 31.83 37.0599 32.0375C36.8849 32.3825 36.2849 32.5525 36.0799 32.5675H32.3299C32.0699 32.5675 31.5249 32.5 30.8649 32.045C30.3574 31.69 29.8574 31.1075 29.3699 30.54C28.6424 29.695 28.0124 28.965 27.3774 28.965C27.2967 28.9649 27.2166 28.9775 27.1399 29.0025C26.6599 29.1575 26.0449 29.8425 26.0449 31.6675C26.0449 32.2375 25.5949 32.565 25.2774 32.565H23.5599C22.9749 32.565 19.9274 32.36 17.2274 29.5125C13.9224 26.025 10.9474 19.03 10.9224 18.965C10.7349 18.5125 11.1224 18.27 11.5449 18.27H15.3324C15.8374 18.27 16.0024 18.5775 16.1174 18.85C16.2524 19.1675 16.7474 20.43 17.5599 21.85C18.8774 24.165 19.6849 25.105 20.3324 25.105C20.4538 25.1036 20.573 25.0727 20.6799 25.015C21.5249 24.545 21.3674 21.5325 21.3299 20.9075C21.3299 20.79 21.3274 19.56 20.8949 18.97C20.5849 18.5425 20.0574 18.38 19.7374 18.32C19.8669 18.1413 20.0375 17.9964 20.2349 17.8975C20.8149 17.6075 21.8599 17.565 22.8974 17.565H23.4749C24.5999 17.58 24.8899 17.6525 25.2974 17.755C26.1224 17.9525 26.1399 18.485 26.0674 20.3075C26.0449 20.825 26.0224 21.41 26.0224 22.1C26.0224 22.25 26.0149 22.41 26.0149 22.58C25.9899 23.5075 25.9599 24.56 26.6149 24.9925C26.7003 25.0461 26.799 25.0746 26.8999 25.075C27.1274 25.075 27.8124 25.075 29.6674 21.8925C30.2395 20.8681 30.7366 19.8037 31.1549 18.7075C31.1924 18.6425 31.3024 18.4425 31.4324 18.365C31.5283 18.3161 31.6347 18.2912 31.7424 18.2925H36.1949C36.6799 18.2925 37.0124 18.365 37.0749 18.5525C37.1849 18.85 37.0549 19.7575 35.0224 22.51L34.1149 23.7075C32.2724 26.1225 32.2724 26.245 34.2299 28.0775Z" fill="white"/>
</svg>
